<svg width="30" height="30" viewBox="0 0 30 30" fill="none" xmlns="http://www.w3.org/2000/svg">
<path fill-rule="evenodd" clip-rule="evenodd" d="M14.9684 0.0268555C6.88823 0.0268555 0.332031 6.58305 0.332031 14.6632C0.332031 22.7434 6.88823 29.2996 14.9684 29.2996C23.0326 29.2996 29.6047 22.7434 29.6047 14.6632C29.6047 6.58305 23.0326 0.0268555 14.9684 0.0268555ZM24.636 6.77354C26.3822 8.90074 27.43 11.6153 27.4617 14.5521C27.0489 14.4727 22.9215 13.6313 18.7624 14.1552C18.6672 13.9489 18.5878 13.7266 18.4925 13.5044C18.2385 12.9012 17.9528 12.2821 17.667 11.6947C22.2706 9.8215 24.3661 7.12279 24.636 6.77354ZM14.9684 2.1858C18.1433 2.1858 21.0483 3.37639 23.2549 5.32896C23.0326 5.64645 21.1435 8.17051 16.6987 9.83733C14.6509 6.07506 12.3809 2.9954 12.0316 2.51916C12.9681 2.29692 13.9524 2.1858 14.9684 2.1858ZM9.65044 3.36051C9.98379 3.805 12.2062 6.90054 14.2858 10.5834C8.44394 12.1392 3.2847 12.1074 2.72909 12.1074C3.53869 8.234 6.15799 5.01147 9.65044 3.36051ZM2.45922 14.6791C2.45922 14.5521 2.45922 14.4251 2.45922 14.2981C2.99896 14.3139 9.06304 14.3933 15.3017 12.5202C15.6669 13.2186 16.0002 13.9329 16.3178 14.6473C16.159 14.6949 15.9843 14.7426 15.8256 14.7902C9.38053 16.8697 5.95163 22.5528 5.66588 23.0291C3.68156 20.8225 2.45922 17.8858 2.45922 14.6791ZM14.9684 27.1723C12.0792 27.1723 9.41228 26.1881 7.30096 24.5372C7.52321 24.0768 10.0631 19.1875 17.1114 16.7269C17.1432 16.711 17.1591 16.711 17.1908 16.6952C18.9529 21.2511 19.6673 25.0769 19.8577 26.1722C18.3497 26.8231 16.6987 27.1723 14.9684 27.1723ZM21.9373 25.0293C21.8103 24.2673 21.1435 20.6162 19.5085 16.1236C23.4296 15.5045 26.8584 16.5206 27.2871 16.6634C26.7473 20.1399 24.7471 23.1402 21.9373 25.0293Z" fill="white"/>
</svg>
