<svg width="51" height="41" viewBox="0 0 51 41" fill="none" xmlns="http://www.w3.org/2000/svg">
<path d="M22.2656 0.694098H1.5967V27H8.36108V19.9726H22.2656C28.2408 19.9726 32.337 16.2146 32.337 10.3521C32.337 4.48966 28.2408 0.694098 22.2656 0.694098ZM20.3866 14.298H8.36108V6.36866H20.3866C22.4159 6.36866 25.5727 6.36866 25.5727 10.3521C25.5727 14.298 22.4159 14.298 20.3866 14.298Z" fill="#f16e22"/>
<path d="M16.6675 26.0485C16.6675 34.8046 21.628 39.6148 33.2026 39.6148C43.6874 39.6148 48.9486 35.5938 49.625 27.9651H42.7479C42.109 32.2492 38.802 33.9403 33.2026 33.9403C26.3631 33.9403 23.4318 31.46 23.4318 26.0485C23.4318 20.6746 26.3255 18.2319 33.2026 18.2319C38.8396 18.2319 42.109 19.8854 42.7479 24.1319H49.625C48.9486 16.5408 43.6874 12.5573 33.2026 12.5573C21.628 12.5573 16.6675 17.33 16.6675 26.0485Z" fill="#f16e22"/>
</svg>
