<svg width="41" height="41" viewBox="0 0 41 41" fill="none" xmlns="http://www.w3.org/2000/svg">
<path d="M17.9682 5.20734C16.0211 5.20734 14.2041 5.75089 12.6551 6.69765C12.495 5.84126 12.2032 5.01485 11.79 4.24783C13.7328 3.17271 15.9225 2.62318 18.1426 2.65354C20.3628 2.6839 22.5367 3.2931 24.4493 4.42093C26.3619 5.54876 27.9471 7.15618 29.0482 9.08431C30.1493 11.0124 30.7282 13.1945 30.7277 15.4149H37.11C38.1247 15.4156 39.0977 15.8192 39.815 16.537C40.5323 17.2548 40.9353 18.228 40.9353 19.2428V34.5542C40.9353 35.5694 40.532 36.543 39.8141 37.2609C39.0963 37.9787 38.1226 38.382 37.1074 38.382H21.796C20.7808 38.382 19.8072 37.9787 19.0893 37.2609C18.3715 36.543 17.9682 35.5694 17.9682 34.5542V28.1744C16.193 28.1767 14.4371 27.8072 12.8134 27.0899C12.8465 26.2222 12.8644 25.3112 12.8644 24.3466V24.2573C14.3649 25.1249 16.1079 25.6225 17.9682 25.6225V19.2428C17.9682 18.2276 18.3715 17.2539 19.0893 16.5361C19.8072 15.8182 20.7808 15.4149 21.796 15.4149H28.1758C28.1758 12.7077 27.1003 10.1114 25.186 8.19707C23.2717 6.28278 20.6754 5.20734 17.9682 5.20734ZM30.4725 17.9668C29.9705 20.4181 28.7598 22.668 26.9905 24.4373C25.2212 26.2065 22.9713 27.4173 20.5201 27.9192V34.5542C20.5201 34.8926 20.6545 35.2171 20.8938 35.4564C21.1331 35.6957 21.4576 35.8301 21.796 35.8301H37.1074C37.4458 35.8301 37.7704 35.6957 38.0097 35.4564C38.2489 35.2171 38.3834 34.8926 38.3834 34.5542V19.2428C38.3834 18.9044 38.2489 18.5798 38.0097 18.3405C37.7704 18.1013 37.4458 17.9668 37.1074 17.9668H30.4725ZM27.8542 17.9668H21.796C21.4576 17.9668 21.1331 18.1013 20.8938 18.3405C20.6545 18.5798 20.5201 18.9044 20.5201 19.2428V25.301C22.2855 24.8436 23.8965 23.9224 25.1861 22.6328C26.4756 21.3433 27.3969 19.7323 27.8542 17.9668V17.9668Z" fill="white"/>
<path d="M6.68839 0.422645C6.90063 0.607595 7.04575 0.857546 7.10114 1.13356C7.15653 1.40958 7.11908 1.69617 6.99462 1.94868C6.97302 2.02334 6.96185 2.10063 6.96144 2.17835C6.96144 2.33912 7.00228 2.64535 7.38761 3.02813C7.5739 3.21442 7.71681 3.34712 7.87247 3.49258C8.00007 3.60997 8.13532 3.73246 8.3063 3.90088C8.63804 4.21732 8.98765 4.5899 9.30154 5.05689C9.95227 6.03427 10.3121 7.25663 10.3121 9.0353C10.3121 11.2121 9.50569 13.0673 8.2476 14.2055L8.41092 14.3943C9.12546 15.2721 9.54142 16.4103 9.80171 17.5331C10.3121 19.7533 10.3121 22.4226 10.3121 24.2829V24.3467C10.3121 31.4588 9.34492 35.4934 8.28078 37.8003C7.74488 38.9614 7.17581 39.7015 6.68329 40.1659C6.48305 40.358 6.26226 40.5275 6.0249 40.6712C5.91622 40.7366 5.80276 40.7938 5.6855 40.8422C5.6855 40.8422 5.39713 40.934 5.20829 40.934C5.01945 40.934 4.73109 40.8422 4.73109 40.8422C4.61255 40.7966 4.49885 40.7393 4.39168 40.6712C4.15432 40.5275 3.93353 40.358 3.73329 40.1659C3.24078 39.6989 2.6717 38.9614 2.1358 37.8003C1.07166 35.4934 0.104492 31.4588 0.104492 24.3467V24.2829C0.104492 22.42 0.104492 19.7533 0.614872 17.5331C0.875166 16.4103 1.29113 15.2721 2.00566 14.3943C2.05669 14.3305 2.11284 14.2667 2.16898 14.2055C0.910892 13.0673 0.104492 11.2121 0.104492 9.0353C0.104492 8.20339 0.326507 7.2107 0.632735 6.29457C0.938963 5.37588 1.36768 4.42657 1.86275 3.66101C2.45224 2.66576 3.28161 1.83129 3.92469 1.26988C4.27725 0.95981 4.64519 0.667674 5.02711 0.394574L5.10366 0.343536L5.12663 0.325672L5.13429 0.320569L5.13939 0.318017C5.37339 0.162037 5.65236 0.0877311 5.93295 0.106652C6.21353 0.125573 6.48 0.23666 6.69094 0.422645H6.68839ZM5.21595 12.8632C6.19332 12.8606 7.76019 11.7658 7.76019 9.0353C7.76019 7.6241 7.48203 6.93254 7.1758 6.4732C6.98962 6.20491 6.77485 5.95763 6.53528 5.7357L6.21884 5.43968C6.01214 5.24573 5.76971 5.02117 5.58087 4.83488C5.30176 4.55868 5.06217 4.24523 4.86889 3.90344C4.54406 4.24498 4.25819 4.62157 4.01655 5.02627C3.65929 5.57493 3.31223 6.32774 3.05449 7.10352C2.78909 7.89461 2.65639 8.59383 2.65639 9.0353C2.65639 11.7709 4.22581 12.8632 5.20829 12.8632H5.21339H5.21595ZM3.98338 16.0071C3.62356 16.4486 3.31989 17.1529 3.10297 18.1073C2.6615 20.0161 2.65639 22.4149 2.65639 24.3467C2.65639 31.27 3.60315 34.8911 4.45293 36.7311C4.73364 37.3359 4.99648 37.7391 5.20829 38.007C5.4201 37.7391 5.6855 37.3359 5.96365 36.7311C6.81344 34.8911 7.76019 31.27 7.76019 24.3467C7.76019 22.4149 7.75509 20.0161 7.31361 18.1073C7.09414 17.1529 6.79302 16.4486 6.4332 16.0071C6.29245 15.8164 6.10736 15.6628 5.89394 15.5596C5.68052 15.4565 5.44519 15.4069 5.20829 15.4151H5.20319C4.96711 15.4075 4.73272 15.4574 4.52023 15.5606C4.30773 15.6637 4.12349 15.8169 3.98338 16.0071V16.0071Z" fill="white"/>
</svg>
