<svg width="30" height="30" viewBox="0 0 30 30" fill="none" xmlns="http://www.w3.org/2000/svg">
<g clip-path="url(#clip0_272_266)">
<path d="M14.9689 3.14887C18.8795 3.14887 19.3426 3.16602 20.8806 3.23463C22.3099 3.29752 23.0818 3.53765 23.5963 3.73775C24.2767 4.00075 24.7684 4.32092 25.2772 4.82976C25.7918 5.34432 26.1062 5.8303 26.3692 6.51066C26.5693 7.02522 26.8095 7.80277 26.8723 9.22639C26.9409 10.7701 26.9581 11.2332 26.9581 15.1381C26.9581 19.0487 26.9409 19.5119 26.8723 21.0498C26.8095 22.4791 26.5693 23.251 26.3692 23.7655C26.1062 24.4459 25.786 24.9376 25.2772 25.4464C24.7626 25.961 24.2767 26.2754 23.5963 26.5384C23.0818 26.7385 22.3042 26.9787 20.8806 27.0416C19.3369 27.1102 18.8738 27.1273 14.9689 27.1273C11.0582 27.1273 10.5951 27.1102 9.05716 27.0416C7.62783 26.9787 6.85599 26.7385 6.34143 26.5384C5.66107 26.2754 5.16938 25.9553 4.66053 25.4464C4.14597 24.9319 3.83152 24.4459 3.56853 23.7655C3.36842 23.251 3.12829 22.4734 3.0654 21.0498C2.99679 19.5061 2.97964 19.043 2.97964 15.1381C2.97964 11.2274 2.99679 10.7643 3.0654 9.22639C3.12829 7.79705 3.36842 7.02522 3.56853 6.51066C3.83152 5.8303 4.15169 5.3386 4.66053 4.82976C5.17509 4.3152 5.66107 4.00075 6.34143 3.73775C6.85599 3.53765 7.63354 3.29752 9.05716 3.23463C10.5951 3.16602 11.0582 3.14887 14.9689 3.14887ZM14.9689 0.513184C10.9953 0.513184 10.4979 0.530336 8.93709 0.598943C7.38198 0.667551 6.31284 0.919113 5.38663 1.2793C4.42041 1.65665 3.60283 2.15406 2.79097 2.97163C1.97339 3.78349 1.47598 4.60107 1.09864 5.56158C0.73845 6.4935 0.486887 7.55693 0.418279 9.11204C0.349672 10.6786 0.33252 11.176 0.33252 15.1495C0.33252 19.1231 0.349672 19.6205 0.418279 21.1813C0.486887 22.7364 0.73845 23.8056 1.09864 24.7318C1.47598 25.698 1.97339 26.5156 2.79097 27.3274C3.60283 28.1393 4.42041 28.6424 5.38092 29.014C6.31284 29.3742 7.37626 29.6258 8.93137 29.6944C10.4922 29.763 10.9896 29.7802 14.9632 29.7802C18.9367 29.7802 19.4341 29.763 20.9949 29.6944C22.55 29.6258 23.6192 29.3742 24.5454 29.014C25.5059 28.6424 26.3235 28.1393 27.1353 27.3274C27.9472 26.5156 28.4503 25.698 28.8219 24.7375C29.1821 23.8056 29.4337 22.7421 29.5023 21.187C29.5709 19.6262 29.5881 19.1288 29.5881 15.1553C29.5881 11.1817 29.5709 10.6843 29.5023 9.12347C29.4337 7.56836 29.1821 6.49922 28.8219 5.57302C28.4618 4.60107 27.9643 3.78349 27.1468 2.97163C26.3349 2.15977 25.5173 1.65665 24.5568 1.28502C23.6249 0.924831 22.5615 0.673269 21.0064 0.604661C19.4398 0.530336 18.9424 0.513184 14.9689 0.513184Z" fill="white"/>
<path d="M14.9685 7.63135C10.8177 7.63135 7.4502 10.9989 7.4502 15.1496C7.4502 19.3004 10.8177 22.6679 14.9685 22.6679C19.1193 22.6679 22.4868 19.3004 22.4868 15.1496C22.4868 10.9989 19.1193 7.63135 14.9685 7.63135ZM14.9685 20.0265C12.2756 20.0265 10.0916 17.8425 10.0916 15.1496C10.0916 12.4568 12.2756 10.2728 14.9685 10.2728C17.6613 10.2728 19.8454 12.4568 19.8454 15.1496C19.8454 17.8425 17.6613 20.0265 14.9685 20.0265Z" fill="white"/>
<path d="M24.5392 7.33383C24.5392 8.30578 23.7503 9.08905 22.784 9.08905C21.8121 9.08905 21.0288 8.30006 21.0288 7.33383C21.0288 6.36189 21.8178 5.57861 22.784 5.57861C23.7503 5.57861 24.5392 6.36761 24.5392 7.33383Z" fill="white"/>
</g>
<defs>
<clipPath id="clip0_272_266">
<rect width="29.2727" height="29.2727" fill="white" transform="translate(0.332031 0.513672)"/>
</clipPath>
</defs>
</svg>
