<svg width="45" height="45" viewBox="0 0 45 45" fill="none" xmlns="http://www.w3.org/2000/svg">
<path d="M16.1153 19.762C16.1153 20.2454 15.9232 20.7091 15.5814 21.0509C15.2396 21.3927 14.7759 21.5848 14.2925 21.5848C13.8091 21.5848 13.3454 21.3927 13.0036 21.0509C12.6618 20.7091 12.4697 20.2454 12.4697 19.762C12.4697 19.2786 12.6618 18.8149 13.0036 18.4731C13.3454 18.1313 13.8091 17.9392 14.2925 17.9392C14.7759 17.9392 15.2396 18.1313 15.5814 18.4731C15.9232 18.8149 16.1153 19.2786 16.1153 19.762Z" fill="white"/>
<path d="M19.7613 21.5848C20.2447 21.5848 20.7083 21.3927 21.0502 21.0509C21.392 20.7091 21.584 20.2454 21.584 19.762C21.584 19.2786 21.392 18.8149 21.0502 18.4731C20.7083 18.1313 20.2447 17.9392 19.7613 17.9392C19.2778 17.9392 18.8142 18.1313 18.4724 18.4731C18.1305 18.8149 17.9385 19.2786 17.9385 19.762C17.9385 20.2454 18.1305 20.7091 18.4724 21.0509C18.8142 21.3927 19.2778 21.5848 19.7613 21.5848Z" fill="white"/>
<path d="M25.229 21.5848C25.7125 21.5848 26.1761 21.3927 26.5179 21.0509C26.8598 20.7091 27.0518 20.2454 27.0518 19.762C27.0518 19.2786 26.8598 18.8149 26.5179 18.4731C26.1761 18.1313 25.7125 17.9392 25.229 17.9392C24.7456 17.9392 24.282 18.1313 23.9401 18.4731C23.5983 18.8149 23.4062 19.2786 23.4062 19.762C23.4062 20.2454 23.5983 20.7091 23.9401 21.0509C24.282 21.3927 24.7456 21.5848 25.229 21.5848Z" fill="white"/>
<path fill-rule="evenodd" clip-rule="evenodd" d="M30.0725 9.45052C32.5848 11.9627 34.0936 15.3055 34.3158 18.8513C34.538 22.3971 33.4582 25.9022 31.2792 28.7082C31.3083 28.7319 31.3338 28.7575 31.3612 28.7848L39.0953 36.5189C39.4273 36.8627 39.611 37.3231 39.6069 37.801C39.6027 38.279 39.411 38.7361 39.0731 39.0741C38.7351 39.4121 38.2779 39.6038 37.8 39.6079C37.3221 39.6121 36.8616 39.4283 36.5179 39.0963L28.7838 31.3622C28.7574 31.3357 28.7318 31.3084 28.7072 31.2802C25.7768 33.5532 22.0906 34.6244 18.3984 34.276C14.7062 33.9275 11.2854 32.1855 8.83203 29.4045C6.37862 26.6234 5.07685 23.0121 5.19155 19.3053C5.30626 15.5985 6.82882 12.0746 9.44949 9.45052C10.8036 8.09635 12.4112 7.02216 14.1804 6.28928C15.9497 5.55641 17.846 5.1792 19.761 5.1792C21.676 5.1792 23.5723 5.55641 25.3416 6.28928C27.1108 7.02216 28.7184 8.09635 30.0725 9.45052ZM12.0269 27.4961C13.0424 28.5117 14.2481 29.3174 15.575 29.8671C16.9019 30.4169 18.3241 30.6998 19.7603 30.6999C21.1966 30.7 22.6188 30.4172 23.9458 29.8676C25.2728 29.3181 26.4785 28.5125 27.4942 27.497C28.5098 26.4815 29.3155 25.2758 29.8652 23.9489C30.4149 22.622 30.6979 21.1998 30.698 19.7636C30.6981 18.3273 30.4153 16.9051 29.8657 15.5781C29.3161 14.2511 28.5106 13.0454 27.4951 12.0298C25.4384 10.0063 22.6655 8.87753 19.7803 8.88928C16.8952 8.90103 14.1316 10.0524 12.0915 12.0925C10.0513 14.1326 8.90001 16.8962 8.88826 19.7814C8.87651 22.6665 10.0053 25.4394 12.0287 27.4961H12.0269Z" fill="white"/>
</svg>
