<svg width="30" height="30" viewBox="0 0 30 30" fill="none" xmlns="http://www.w3.org/2000/svg">
<g clip-path="url(#clip0_272_265)">
<path d="M29.3136 9.03806C29.3136 9.03806 29.0278 7.01985 28.1473 6.13366C27.0324 4.96733 25.786 4.96161 25.2143 4.893C21.1207 4.5957 14.9746 4.5957 14.9746 4.5957H14.9632C14.9632 4.5957 8.81703 4.5957 4.72342 4.893C4.15169 4.96161 2.90532 4.96733 1.79044 6.13366C0.909969 7.01985 0.62982 9.03806 0.62982 9.03806C0.62982 9.03806 0.33252 11.4108 0.33252 13.7777V15.996C0.33252 18.363 0.624103 20.7357 0.624103 20.7357C0.624103 20.7357 0.909969 22.7539 1.78472 23.6401C2.8996 24.8064 4.36323 24.7664 5.01501 24.8922C7.35911 25.1152 14.9689 25.1838 14.9689 25.1838C14.9689 25.1838 21.1207 25.1724 25.2143 24.8808C25.786 24.8122 27.0324 24.8064 28.1473 23.6401C29.0278 22.7539 29.3136 20.7357 29.3136 20.7357C29.3136 20.7357 29.6052 18.3687 29.6052 15.996V13.7777C29.6052 11.4108 29.3136 9.03806 29.3136 9.03806ZM11.3017 20.7357V9.03806L20.7039 15.1429L11.3017 20.7357Z" fill="white"/>
</g>
<defs>
<clipPath id="clip0_272_265">
<rect width="29.2727" height="29.2727" fill="white" transform="translate(0.332031 0.256836)"/>
</clipPath>
</defs>
</svg>
