<svg width="25" height="25" viewBox="0 0 25 25" fill="none" xmlns="http://www.w3.org/2000/svg">
<mask id="path-1-inside-1_409_1897" fill="white">
<path d="M24.0417 12.0208L12.0209 24.0416L0.000117898 12.0208L12.0209 -2.08616e-06L24.0417 12.0208Z"/>
</mask>
<path d="M12.0209 24.0416L9.89961 26.1629L12.0209 28.2843L14.1423 26.1629L12.0209 24.0416ZM21.9204 9.89949L9.89961 21.9203L14.1423 26.1629L26.1631 14.1421L21.9204 9.89949ZM14.1423 21.9203L2.12144 9.89949L-2.1212 14.1421L9.89961 26.1629L14.1423 21.9203Z" fill="black" mask="url(#path-1-inside-1_409_1897)"/>
<path d="M12.0209 24.0416L9.89961 26.1629L12.0209 28.2843L14.1423 26.1629L12.0209 24.0416ZM21.9204 9.89949L9.89961 21.9203L14.1423 26.1629L26.1631 14.1421L21.9204 9.89949ZM14.1423 21.9203L2.12144 9.89949L-2.1212 14.1421L9.89961 26.1629L14.1423 21.9203Z" fill="black" mask="url(#path-1-inside-1_409_1897)"/>
</svg>
