<svg width="48" height="48" viewBox="0 0 48 48" fill="none" xmlns="http://www.w3.org/2000/svg">
<path fill-rule="evenodd" clip-rule="evenodd" d="M24 0C10.7452 0 0 10.7452 0 24C0 37.2548 10.7452 48 24 48C37.2548 48 48 37.2548 48 24C48 10.7452 37.2548 0 24 0ZM23.6811 16.0788C24.2851 16.9085 24.588 17.8997 24.588 19.0561C24.588 20.2459 24.2851 21.2055 23.6736 21.9295C23.3311 22.3341 22.8288 22.7053 22.1646 23.0395C23.1731 23.4033 23.9332 23.9768 24.4506 24.762C24.9624 25.5453 25.2202 26.4994 25.2202 27.6205C25.2202 28.7769 24.9267 29.8145 24.3377 30.7314C23.9652 31.3384 23.4986 31.8507 22.9379 32.2665C22.3076 32.7435 21.5644 33.0684 20.7046 33.2466C19.8447 33.4229 18.9153 33.5083 17.9105 33.5083H8.99976V13.9999H18.5559C20.968 14.0351 22.6745 14.7275 23.6811 16.0788ZM29.4477 17.3374H37.922V14.9095H29.4477V17.3374ZM31.4553 22.6347C30.9153 23.1841 30.5747 23.9285 30.4355 24.8677H37.0264C36.9568 23.8654 36.6143 23.108 36.0085 22.5865C35.3951 22.0686 34.6406 21.8106 33.7375 21.8106C32.7591 21.8106 31.9952 22.0853 31.4553 22.6347ZM39.7001 21.5099C39.0378 20.5373 38.1967 19.8245 37.1751 19.3753C36.1553 18.9243 35.0095 18.6978 33.7357 18.6978C31.5927 18.6978 29.8523 19.3679 28.507 20.6988C27.1655 22.0334 26.4938 23.9508 26.4938 26.451C26.4938 29.1165 27.2351 31.0432 28.7271 32.2256C30.2117 33.4099 31.9295 34.0001 33.8768 34.0001C36.2343 34.0001 38.0688 33.2985 39.3783 31.8971C40.2175 31.0135 40.6916 30.143 40.7951 29.2891H36.891C36.6652 29.7123 36.4018 30.0427 36.1026 30.2822C35.5589 30.7221 34.8495 30.943 33.9822 30.943C33.1581 30.943 32.4563 30.7611 31.873 30.3991C30.9097 29.8182 30.4054 28.8028 30.3415 27.3569H40.9964C41.0133 26.1114 40.9719 25.1536 40.8685 24.4928C40.6916 23.3624 40.304 22.3675 39.7001 21.5099ZM12.9417 24.9197V30.1226H17.7433C18.6012 30.1226 19.2711 30.0075 19.7471 29.7792C20.6144 29.3522 21.0472 28.5429 21.0472 27.3439C21.0472 26.3267 20.6295 25.6306 19.7885 25.2501C19.3181 25.0385 18.6577 24.9271 17.811 24.9197H12.9417ZM12.9417 21.6919V17.3874H17.2466C18.193 17.3874 18.9719 17.4895 19.5853 17.6918C20.2927 17.9851 20.6464 18.5846 20.6464 19.496C20.6464 20.3127 20.3774 20.8844 19.843 21.2074C19.3049 21.5304 18.6069 21.6919 17.7508 21.6919H12.9417Z" fill="white"/>
</svg>
