<svg width="30" height="30" viewBox="0 0 30 30" fill="none" xmlns="http://www.w3.org/2000/svg">
<path fill-rule="evenodd" clip-rule="evenodd" d="M15 0.544922C6.91984 0.544922 0.363647 7.10112 0.363647 15.1813C0.363647 23.2614 6.91984 29.8176 15 29.8176C23.0643 29.8176 29.6363 23.2614 29.6363 15.1813C29.6363 7.10112 23.0643 0.544922 15 0.544922ZM24.6676 7.29161C26.4138 9.4188 27.4616 12.1333 27.4933 15.0701C27.0806 14.9908 22.9531 14.1494 18.794 14.6733C18.6988 14.4669 18.6194 14.2446 18.5242 14.0224C18.2701 13.4192 17.9844 12.8001 17.6987 12.2127C22.3023 10.3396 24.3977 7.64085 24.6676 7.29161ZM15 2.70387C18.1749 2.70387 21.0799 3.89446 23.2865 5.84703C23.0643 6.16452 21.1752 8.68858 16.7303 10.3554C14.6825 6.59313 12.4125 3.51347 12.0632 3.03723C12.9998 2.81498 13.9841 2.70387 15 2.70387ZM9.68206 3.87858C10.0154 4.32307 12.2378 7.41861 14.3174 11.1015C8.47555 12.6572 3.31632 12.6255 2.76071 12.6255C3.57031 8.75207 6.18961 5.52953 9.68206 3.87858ZM2.49084 15.1972C2.49084 15.0701 2.49084 14.9432 2.49084 14.8162C3.03057 14.832 9.09466 14.9114 15.3333 13.0382C15.6985 13.7367 16.0319 14.451 16.3494 15.1654C16.1906 15.213 16.0159 15.2607 15.8572 15.3082C9.41215 17.3878 5.98325 23.0709 5.6975 23.5471C3.71318 21.3406 2.49084 18.4038 2.49084 15.1972ZM15 27.6904C12.1108 27.6904 9.4439 26.7062 7.33258 25.0552C7.55482 24.5949 10.0947 19.7055 17.143 17.245C17.1748 17.2291 17.1907 17.2291 17.2224 17.2133C18.9845 21.7692 19.6989 25.5949 19.8894 26.6903C18.3813 27.3412 16.7303 27.6904 15 27.6904ZM21.9689 25.5474C21.8419 24.7854 21.1752 21.1342 19.5401 16.6417C23.4612 16.0226 26.89 17.0386 27.3187 17.1815C26.779 20.658 24.7787 23.6583 21.9689 25.5474Z" fill="white"/>
</svg>
