<svg width="30" height="30" viewBox="0 0 30 30" fill="none" xmlns="http://www.w3.org/2000/svg">
<g clip-path="url(#clip0_272_264)">
<path fill-rule="evenodd" clip-rule="evenodd" d="M14.9683 0.609619C11.4937 0.611422 8.13298 1.84207 5.48714 4.08151C2.8413 6.32095 1.08286 9.42315 0.526245 12.8334C-0.0303738 16.2437 0.65112 19.7396 2.44888 22.6961C4.24665 25.6526 7.04344 27.8769 10.3392 28.9712C11.0663 29.1061 11.3401 28.6555 11.3401 28.2723C11.3401 27.8891 11.3256 26.7782 11.3207 25.5636C7.24903 26.4432 6.38864 23.8454 6.38864 23.8454C5.72456 22.1585 4.7648 21.7151 4.7648 21.7151C3.43665 20.8138 4.86418 20.8307 4.86418 20.8307C6.33533 20.9343 7.10847 22.332 7.10847 22.332C8.41239 24.5563 10.5331 23.9129 11.3668 23.537C11.4977 22.5947 11.8782 21.9537 12.2975 21.5898C9.04495 21.2235 5.62762 19.9752 5.62762 14.3988C5.60746 12.9526 6.14719 11.554 7.13513 10.4924C6.98486 10.1261 6.48316 8.64648 7.27811 6.63666C7.27811 6.63666 8.50691 6.24627 11.3038 8.12836C13.7028 7.47605 16.2339 7.47605 18.6329 8.12836C21.4273 6.24627 22.6537 6.63666 22.6537 6.63666C23.451 8.64166 22.9494 10.1213 22.7991 10.4924C23.7902 11.5542 24.331 12.9552 24.309 14.4036C24.309 19.9921 20.8844 21.2235 17.627 21.5826C18.1506 22.0356 18.6183 22.92 18.6183 24.2792C18.6183 26.2263 18.6014 27.7928 18.6014 28.2723C18.6014 28.6603 18.8655 29.1134 19.6072 28.9712C22.9033 27.8767 25.7003 25.6521 27.4981 22.6951C29.2958 19.7381 29.9769 16.2416 29.4197 12.831C28.8624 9.42046 27.1031 6.31823 24.4564 4.07917C21.8097 1.84012 18.4482 0.610279 14.9732 0.609619H14.9683Z" fill="white"/>
<path d="M5.87599 21.5063C5.84438 21.5788 5.7277 21.6006 5.63288 21.5498C5.53807 21.4991 5.46758 21.4048 5.50161 21.3299C5.53565 21.2549 5.64991 21.2356 5.74472 21.2864C5.83953 21.3371 5.91245 21.4338 5.87599 21.5063Z" fill="white"/>
<path d="M6.47032 22.1648C6.41998 22.1901 6.36238 22.1971 6.30739 22.1848C6.2524 22.1724 6.20344 22.1414 6.16888 22.0972C6.07407 21.9956 6.05461 21.8554 6.12754 21.7926C6.20047 21.7297 6.33176 21.7588 6.42657 21.8603C6.52138 21.9618 6.54325 22.102 6.47032 22.1648Z" fill="white"/>
<path d="M7.04557 23.0003C6.9558 23.063 6.80295 23.0003 6.71804 22.8749C6.69456 22.8524 6.67589 22.8254 6.66314 22.7956C6.65038 22.7657 6.6438 22.7336 6.6438 22.7012C6.6438 22.6688 6.65038 22.6367 6.66314 22.6068C6.67589 22.577 6.69456 22.55 6.71804 22.5275C6.80781 22.4672 6.96066 22.5275 7.04557 22.6505C7.13048 22.7736 7.13291 22.9376 7.04557 23.0003Z" fill="white"/>
<path d="M7.82919 23.8096C7.74913 23.8988 7.58659 23.8747 7.45316 23.7541C7.31973 23.6335 7.28818 23.4694 7.36824 23.3826C7.4483 23.2958 7.61084 23.3199 7.74913 23.4381C7.88741 23.5563 7.9141 23.7227 7.82919 23.8096Z" fill="white"/>
<path d="M8.92711 24.2819C8.89072 24.3953 8.72575 24.4459 8.56078 24.3977C8.39581 24.3495 8.28663 24.2144 8.31817 24.0986C8.34971 23.9828 8.51711 23.9297 8.68451 23.9828C8.8519 24.0359 8.95865 24.1637 8.92711 24.2819Z" fill="white"/>
<path d="M10.1249 24.3639C10.1249 24.4821 9.98907 24.5834 9.81439 24.5859C9.63972 24.5883 9.49658 24.4918 9.49658 24.3736C9.49658 24.2554 9.63243 24.1541 9.80711 24.1517C9.98178 24.1492 10.1249 24.2433 10.1249 24.3639Z" fill="white"/>
<path d="M11.2385 24.1782C11.2603 24.2964 11.139 24.4195 10.9644 24.4484C10.7897 24.4774 10.6368 24.4074 10.615 24.2916C10.5932 24.1758 10.7193 24.0504 10.8892 24.019C11.059 23.9877 11.2167 24.06 11.2385 24.1782Z" fill="white"/>
</g>
<defs>
<clipPath id="clip0_272_264">
<rect width="29.2727" height="29.2727" fill="white" transform="translate(0.332031)"/>
</clipPath>
</defs>
</svg>
