<svg width="30" height="30" viewBox="0 0 30 30" fill="none" xmlns="http://www.w3.org/2000/svg">
<path d="M0 15C0 6.71573 6.71573 0 15 0C23.2843 0 30 6.71573 30 15C30 23.2843 23.2843 30 15 30C6.71573 30 0 23.2843 0 15Z" fill="white"/>
<path fill-rule="evenodd" clip-rule="evenodd" d="M10.0852 8.21947C10.0852 9.3767 9.21407 10.3027 7.81541 10.3027H7.78978C6.4431 10.3027 5.5725 9.3767 5.5725 8.21947C5.5725 7.03776 6.46962 6.1377 7.84185 6.1377C9.21407 6.1377 10.0591 7.03776 10.0852 8.21947ZM9.82096 11.9479V24.0001H5.8097V11.9479H9.82096ZM24.287 23.9996L24.2871 17.0893C24.2871 13.3873 22.3082 11.6644 19.6686 11.6644C17.5389 11.6644 16.5854 12.8342 16.053 13.6548V11.9477H12.0413C12.0941 13.0787 12.0413 23.9999 12.0413 23.9999H16.053V17.269C16.053 16.9088 16.0791 16.5495 16.1851 16.2916C16.475 15.572 17.1351 14.8269 18.2433 14.8269C19.6954 14.8269 20.2758 15.9321 20.2758 17.5517V23.9996H24.287Z" fill="#10141A"/>
</svg>
