<svg width="11" height="15" viewBox="0 0 11 15" fill="none" xmlns="http://www.w3.org/2000/svg">
<path d="M2.0664 14.4332H8.85578C9.77577 14.4332 10.2251 13.9768 10.2251 12.9784V7.7437C10.2251 6.84511 9.85422 6.38155 9.09113 6.3031V4.50591C9.09113 1.81726 7.3296 0.519287 5.46109 0.519287C3.59258 0.519287 1.83105 1.81726 1.83105 4.50591V6.33876C1.13215 6.44573 0.697113 6.90216 0.697113 7.7437V12.9784C0.697113 13.9768 1.14641 14.4332 2.0664 14.4332ZM2.97926 4.35614C2.97926 2.56609 4.12746 1.61757 5.46109 1.61757C6.79472 1.61757 7.94292 2.56609 7.94292 4.35614V6.29597L2.97926 6.3031V4.35614Z" fill="#DBDBDC"/>
</svg>
