<svg width="51" height="41" viewBox="0 0 51 41" fill="none" xmlns="http://www.w3.org/2000/svg">
<path d="M22.4102 0.694098H1.74124V27H8.50561V19.9726H22.4102C28.3854 19.9726 32.4816 16.2146 32.4816 10.3521C32.4816 4.48966 28.3854 0.694098 22.4102 0.694098ZM20.5312 14.298H8.50561V6.36866H20.5312C22.5605 6.36866 25.7172 6.36866 25.7172 10.3521C25.7172 14.298 22.5605 14.298 20.5312 14.298Z" fill="#CDD4DC"/>
<path d="M16.812 26.0485C16.812 34.8046 21.7725 39.6148 33.3471 39.6148C43.8319 39.6148 49.0931 35.5938 49.7695 27.9651H42.8924C42.2536 32.2492 38.9465 33.9403 33.3471 33.9403C26.5076 33.9403 23.5764 31.46 23.5764 26.0485C23.5764 20.6746 26.47 18.2319 33.3471 18.2319C38.9841 18.2319 42.2536 19.8854 42.8924 24.1319H49.7695C49.0931 16.5408 43.8319 12.5573 33.3471 12.5573C21.7725 12.5573 16.812 17.33 16.812 26.0485Z" fill="#CDD4DC"/>
</svg>
