<svg width="30" height="31" viewBox="0 0 30 31" fill="none" xmlns="http://www.w3.org/2000/svg">
<g clip-path="url(#clip0_272_267)">
<path d="M9.54093 27.2986C20.5845 27.2986 26.6266 18.1469 26.6266 10.213C26.6266 9.95569 26.6209 9.69269 26.6094 9.43541C27.7848 8.5854 28.7991 7.53255 29.6047 6.32633C28.5101 6.81335 27.3479 7.13143 26.1578 7.26969C27.4108 6.51856 28.3491 5.33859 28.7986 3.94849C27.6197 4.64712 26.3305 5.13995 24.9863 5.40584C24.0805 4.44344 22.883 3.80621 21.5787 3.59269C20.2745 3.37916 18.9363 3.60123 17.7709 4.22455C16.6056 4.84787 15.678 5.83773 15.1316 7.04109C14.5853 8.24445 14.4505 9.59428 14.7483 10.8819C12.3613 10.7621 10.0261 10.142 7.89412 9.06186C5.76215 7.98169 3.88097 6.46554 2.37254 4.6117C1.60588 5.93352 1.37128 7.49766 1.71642 8.98623C2.06157 10.4748 2.96055 11.7761 4.23067 12.6257C3.27714 12.5954 2.3445 12.3387 1.5098 11.8767V11.951C1.50895 13.3382 1.9885 14.6828 2.86694 15.7564C3.74538 16.8299 4.96849 17.5661 6.32836 17.8399C5.44506 18.0815 4.518 18.1168 3.61892 17.9428C4.00265 19.1357 4.74925 20.1791 5.75452 20.9273C6.75979 21.6756 7.97357 22.0913 9.22647 22.1164C7.09942 23.7873 4.47189 24.6935 1.76708 24.6892C1.2874 24.6885 0.808199 24.6591 0.332031 24.6012C3.07983 26.364 6.27626 27.3003 9.54093 27.2986Z" fill="white"/>
</g>
<defs>
<clipPath id="clip0_272_267">
<rect width="29.2727" height="29.2727" fill="white" transform="translate(0.332031 0.770264)"/>
</clipPath>
</defs>
</svg>
