<svg width="44" height="44" viewBox="0 0 44 44" fill="none" xmlns="http://www.w3.org/2000/svg">
<g clip-path="url(#clip0_439_944)">
<path d="M1.56051 9.98636C1.90512 9.98636 2.18451 9.70698 2.18451 9.36237V8.23145H39.0914V14.1431C39.0914 14.4877 39.3707 14.7671 39.7154 14.7671C40.0601 14.7671 40.3394 14.4877 40.3394 14.1431V3.51799C40.3394 2.07274 39.1636 0.896973 37.7184 0.896973H3.55745C2.11229 0.896973 0.936523 2.07274 0.936523 3.51799V9.36237C0.936523 9.70698 1.2159 9.98636 1.56051 9.98636ZM3.55745 2.14496H37.7184C38.4755 2.14496 39.0914 2.76088 39.0914 3.51799V6.98347H2.18451V3.51799C2.18451 2.76088 2.80043 2.14496 3.55745 2.14496Z" fill="white"/>
<path d="M14.6887 39.0495H3.55745C2.80034 39.0495 2.18451 38.4335 2.18451 37.6765V12.0193C2.18451 11.6746 1.90512 11.3953 1.56051 11.3953C1.21591 11.3953 0.936523 11.6746 0.936523 12.0193V37.6765C0.936523 39.1218 2.11229 40.2974 3.55745 40.2974H14.6887C15.0333 40.2974 15.3127 40.0181 15.3127 39.6735C15.3127 39.3288 15.0333 39.0495 14.6887 39.0495Z" fill="white"/>
<path d="M40.5362 16.0125H19.4923C17.8757 16.0125 16.5605 17.3277 16.5605 18.9443V27.0515C16.5605 27.3961 16.8399 27.6755 17.1845 27.6755C17.5291 27.6755 17.8085 27.3961 17.8085 27.0515V22.8639H42.22V40.4773C42.22 41.4057 41.4647 42.1611 40.5363 42.1611H19.4923C18.5639 42.1611 17.8085 41.4057 17.8085 40.4773V29.7108C17.8085 29.3662 17.5291 29.0868 17.1845 29.0868C16.8399 29.0868 16.5605 29.3662 16.5605 29.7108V40.4773C16.5605 42.0939 17.8758 43.409 19.4923 43.409H40.5362C42.1528 43.409 43.4679 42.0938 43.4679 40.4773V18.9443C43.468 17.3277 42.1528 16.0125 40.5362 16.0125ZM17.8085 21.6159V18.9443C17.8085 18.0158 18.5639 17.2604 19.4923 17.2604H40.5362C41.4646 17.2604 42.22 18.0158 42.22 18.9443V21.6159H17.8085Z" fill="white"/>
<path d="M4.75973 5.15448H5.22831C5.57292 5.15448 5.8523 4.8751 5.8523 4.53049C5.8523 4.18588 5.57292 3.90649 5.22831 3.90649H4.75973C4.41512 3.90649 4.13574 4.18588 4.13574 4.53049C4.13574 4.8751 4.41512 5.15448 4.75973 5.15448Z" fill="white"/>
<path d="M9.10055 5.15448H9.56913C9.91374 5.15448 10.1931 4.8751 10.1931 4.53049C10.1931 4.18588 9.91374 3.90649 9.56913 3.90649H9.10055C8.75594 3.90649 8.47656 4.18588 8.47656 4.53049C8.47656 4.8751 8.75594 5.15448 9.10055 5.15448Z" fill="white"/>
<path d="M13.4404 5.15448H13.909C14.2536 5.15448 14.533 4.8751 14.533 4.53049C14.533 4.18588 14.2536 3.90649 13.909 3.90649H13.4404C13.0958 3.90649 12.8164 4.18588 12.8164 4.53049C12.8164 4.8751 13.0958 5.15448 13.4404 5.15448Z" fill="white"/>
<path d="M37.3636 31.268H34.7361C34.3914 31.268 34.1121 31.5474 34.1121 31.892C34.1121 32.2366 34.3914 32.516 34.7361 32.516H37.3636C38.4123 32.516 39.2655 31.6628 39.2655 30.614V27.9649C39.2655 26.9162 38.4123 26.063 37.3636 26.063H22.6647C21.616 26.063 20.7627 26.9162 20.7627 27.9649V30.614C20.7627 31.6628 21.6159 32.516 22.6647 32.516H32.0769C32.4216 32.516 32.7009 32.2366 32.7009 31.892C32.7009 31.5474 32.4216 31.268 32.0769 31.268H22.6647C22.3041 31.268 22.0107 30.9746 22.0107 30.614V27.9649C22.0107 27.6043 22.3041 27.311 22.6647 27.311H37.3637C37.7243 27.311 38.0176 27.6043 38.0176 27.9649V30.614C38.0176 30.9746 37.7242 31.268 37.3636 31.268Z" fill="white"/>
<path d="M7.49767 13.3703H33.9559C34.3006 13.3703 34.5799 13.0909 34.5799 12.7463C34.5799 12.4017 34.3006 12.1223 33.9559 12.1223H7.49767C6.7354 12.1223 6.11523 12.7425 6.11523 13.5047V21.2863C6.11523 22.0486 6.7354 22.6688 7.49767 22.6688H13.1192C13.4638 22.6688 13.7431 22.3894 13.7431 22.0448C13.7431 21.7002 13.4638 21.4208 13.1192 21.4208H7.49767C7.42354 21.4208 7.36322 21.3605 7.36322 21.2863V13.5047C7.36322 13.4306 7.42354 13.3703 7.49767 13.3703Z" fill="white"/>
<path d="M13.0981 25.3137H6.73922C6.39462 25.3137 6.11523 25.5931 6.11523 25.9377C6.11523 26.2823 6.39462 26.5617 6.73922 26.5617H13.0981C13.4427 26.5617 13.7221 26.2823 13.7221 25.9377C13.7221 25.5931 13.4427 25.3137 13.0981 25.3137Z" fill="white"/>
<path d="M13.0981 29.9917H6.73922C6.39462 29.9917 6.11523 30.2711 6.11523 30.6157C6.11523 30.9603 6.39462 31.2397 6.73922 31.2397H13.0981C13.4427 31.2397 13.7221 30.9603 13.7221 30.6157C13.7221 30.2711 13.4427 29.9917 13.0981 29.9917Z" fill="white"/>
<path d="M21.3867 37.904H38.6416C38.9863 37.904 39.2656 37.6246 39.2656 37.28C39.2656 36.9354 38.9863 36.656 38.6416 36.656H21.3867C21.0421 36.656 20.7627 36.9354 20.7627 37.28C20.7627 37.6246 21.0421 37.904 21.3867 37.904Z" fill="white"/>
</g>
<defs>
<clipPath id="clip0_439_944">
<rect width="42.5316" height="42.5316" fill="white" transform="translate(0.9375 0.88623)"/>
</clipPath>
</defs>
</svg>
